<?xml version="1.0" encoding="UTF-8"?>
<svg width="76.325cm" height="29.823cm" version="1.1" viewBox="0 0 763.25 298.23" xmlns="http://www.w3.org/2000/svg" xmlns:cc="http://creativecommons.org/ns#" xmlns:dc="http://purl.org/dc/elements/1.1/" xmlns:rdf="http://www.w3.org/1999/02/22-rdf-syntax-ns#">
 <metadata>
  <rdf:RDF>
   <cc:Work rdf:about="">
    <dc:format>image/svg+xml</dc:format>
    <dc:type rdf:resource="http://purl.org/dc/dcmitype/StillImage"/>
    <dc:title/>
   </cc:Work>
  </rdf:RDF>
 </metadata>
 <g transform="translate(-44.476 921.32)">
  <text x="59.868374" y="-1314.6353" fill="#000000" font-family="sans-serif" font-size="10.583px" letter-spacing="0px" word-spacing="0px" style="line-height:1.25" xml:space="preserve"/>
  <g transform="matrix(10.781 0 0 10.781 30.927 -937.82)" fill-rule="evenodd">
   <g transform="matrix(.76857 0 0 1.3011 -27.781 -33.262)" stroke-width=".65262" aria-label="MAKER">
    <path d="m56.606 47.249h-2.5238v-16.354l-5.277 11.128h-1.5041l-5.2388-11.128v16.354h-2.3581v-18.98h3.4416l5.0604 10.567 4.8946-10.567h3.5053z"/>
    <path d="m76.695 47.249h-2.6895l-1.861-5.2898h-8.2087l-1.861 5.2898h-2.562l6.9086-18.98h3.3651zm-5.328-7.4567-3.3268-9.3177-3.3396 9.3177z"/>
    <path d="m94.833 47.249h-3.2758l-7.5077-8.4509-1.8865 2.0139v6.437h-2.5238v-18.98h2.5238v9.904l9.2157-9.904h3.0592l-8.4764 8.9225z"/>
    <path d="m110.18 47.249h-12.504v-18.98h12.504v2.2434h-9.9805v5.2006h9.9805v2.2434h-9.9805v7.0488h9.9805z"/>
    <path d="m129.9 47.249h-3.2758l-6.3477-7.5459h-3.5563v7.5459h-2.5238v-18.98h5.3153q1.7208 0 2.868 0.22944 1.1472 0.21669 2.0649 0.79028 1.0325 0.65007 1.606 1.6443 0.58634 0.98148 0.58634 2.4983 0 2.0522-1.0325 3.4416-1.0325 1.3766-2.8425 2.0777zm-5.9016-13.639q0-0.81578-0.29317-1.4404-0.28042-0.63732-0.94324-1.0707-0.5481-0.36965-1.3001-0.50986-0.75204-0.15296-1.7718-0.15296h-2.9699v7.1635h2.5493q1.1982 0 2.0904-0.20394 0.89225-0.21669 1.5168-0.79028 0.57359-0.53535 0.84127-1.2237 0.28042-0.70106 0.28042-1.7718z"/>
   </g>
   <g transform="matrix(1 0 0 .93333 -28.698 -24.48)">
    <path d="m34.982 30.47a2.5135 2.5135 0 0 1-2.5135 2.5135 2.5135 2.5135 0 0 1-2.5135-2.5135 2.5135 2.5135 0 0 1 2.5135-2.5135 2.5135 2.5135 0 0 1 2.5135 2.5135z" fill-rule="evenodd" stroke-width=".36104"/>
    <path d="m33.526 30.47a1.0583 1.0583 0 0 1-1.0583 1.0583 1.0583 1.0583 0 0 1-1.0583-1.0583 1.0583 1.0583 0 0 1 1.0583-1.0583 1.0583 1.0583 0 0 1 1.0583 1.0583z" fill="#fff" stroke-width=".30205"/>
   </g>
   <g transform="matrix(1 0 0 .93333 -7.9359 -24.563)">
    <path d="m34.982 30.47a2.5135 2.5135 0 0 1-2.5135 2.5135 2.5135 2.5135 0 0 1-2.5135-2.5135 2.5135 2.5135 0 0 1 2.5135-2.5135 2.5135 2.5135 0 0 1 2.5135 2.5135z" fill-rule="evenodd" stroke-width=".36104"/>
    <path d="m33.526 30.47a1.0583 1.0583 0 0 1-1.0583 1.0583 1.0583 1.0583 0 0 1-1.0583-1.0583 1.0583 1.0583 0 0 1 1.0583-1.0583 1.0583 1.0583 0 0 1 1.0583 1.0583z" fill="#fff" stroke-width=".30205"/>
   </g>
   <g transform="matrix(1 0 0 .93333 -23.261 -8.7536)">
    <path d="m34.982 30.47a2.5135 2.5135 0 0 1-2.5135 2.5135 2.5135 2.5135 0 0 1-2.5135-2.5135 2.5135 2.5135 0 0 1 2.5135-2.5135 2.5135 2.5135 0 0 1 2.5135 2.5135z" fill-rule="evenodd" stroke-width=".36104"/>
    <path d="m33.526 30.47a1.0583 1.0583 0 0 1-1.0583 1.0583 1.0583 1.0583 0 0 1-1.0583-1.0583 1.0583 1.0583 0 0 1 1.0583-1.0583 1.0583 1.0583 0 0 1 1.0583 1.0583z" fill="#fff" stroke-width=".30205"/>
   </g>
   <g transform="matrix(1 0 0 .93333 3.4611 -11.579)">
    <path d="m34.982 30.47a2.5135 2.5135 0 0 1-2.5135 2.5135 2.5135 2.5135 0 0 1-2.5135-2.5135 2.5135 2.5135 0 0 1 2.5135-2.5135 2.5135 2.5135 0 0 1 2.5135 2.5135z" fill-rule="evenodd" stroke-width=".36104"/>
    <path d="m33.526 30.47a1.0583 1.0583 0 0 1-1.0583 1.0583 1.0583 1.0583 0 0 1-1.0583-1.0583 1.0583 1.0583 0 0 1 1.0583-1.0583 1.0583 1.0583 0 0 1 1.0583 1.0583z" fill="#fff" stroke-width=".30205"/>
   </g>
   <g transform="matrix(1 0 0 .93333 15.866 -1.5916)">
    <path d="m34.982 30.47a2.5135 2.5135 0 0 1-2.5135 2.5135 2.5135 2.5135 0 0 1-2.5135-2.5135 2.5135 2.5135 0 0 1 2.5135-2.5135 2.5135 2.5135 0 0 1 2.5135 2.5135z" fill-rule="evenodd" stroke-width=".36104"/>
    <path d="m33.526 30.47a1.0583 1.0583 0 0 1-1.0583 1.0583 1.0583 1.0583 0 0 1-1.0583-1.0583 1.0583 1.0583 0 0 1 1.0583-1.0583 1.0583 1.0583 0 0 1 1.0583 1.0583z" fill="#fff" stroke-width=".30205"/>
   </g>
   <g transform="matrix(1 0 0 .93333 32.969 -11.646)">
    <path d="m34.982 30.47a2.5135 2.5135 0 0 1-2.5135 2.5135 2.5135 2.5135 0 0 1-2.5135-2.5135 2.5135 2.5135 0 0 1 2.5135-2.5135 2.5135 2.5135 0 0 1 2.5135 2.5135z" fill-rule="evenodd" stroke-width=".36104"/>
    <path d="m33.526 30.47a1.0583 1.0583 0 0 1-1.0583 1.0583 1.0583 1.0583 0 0 1-1.0583-1.0583 1.0583 1.0583 0 0 1 1.0583-1.0583 1.0583 1.0583 0 0 1 1.0583 1.0583z" fill="#fff" stroke-width=".30205"/>
   </g>
  </g>
 </g>
</svg>
